<svg width="79" height="70" viewBox="0 0 79 70" fill="none" xmlns="http://www.w3.org/2000/svg">
<path d="M29.1375 19.6437C27.3875 22.3271 25.3896 26.3083 23.1437 31.5875C22.5021 30.275 21.9625 29.2177 21.525 28.4156C21.0875 27.6135 20.4969 26.6875 19.7531 25.6375C19.0094 24.5875 18.2656 23.7635 17.5219 23.1656C16.7781 22.5677 15.8594 22.0573 14.7656 21.6344C13.6719 21.2115 12.4833 21 11.2 21H1.4C0.991667 21 0.65625 20.8687 0.39375 20.6062C0.13125 20.3437 0 20.0083 0 19.6V11.2C0 10.7917 0.13125 10.4562 0.39375 10.1937C0.65625 9.93125 0.991667 9.8 1.4 9.8H11.2C18.4917 9.8 24.4708 13.0812 29.1375 19.6437ZM78.4 54.6C78.4 55.0083 78.2687 55.3437 78.0062 55.6062L64.0062 69.6062C63.7437 69.8687 63.4083 70 63 70C62.6208 70 62.2927 69.8615 62.0156 69.5844C61.7385 69.3073 61.6 68.9792 61.6 68.6V60.2C60.6667 60.2 59.4271 60.2073 57.8812 60.2219C56.3354 60.2365 55.1542 60.251 54.3375 60.2656C53.5208 60.2802 52.4562 60.2656 51.1437 60.2219C49.8312 60.1781 48.7958 60.1052 48.0375 60.0031C47.2792 59.901 46.3458 59.7479 45.2375 59.5437C44.1292 59.3396 43.2104 59.0698 42.4812 58.7344C41.7521 58.399 40.9062 57.9833 39.9437 57.4875C38.9812 56.9917 38.1208 56.4083 37.3625 55.7375C36.6042 55.0667 35.8021 54.2865 34.9562 53.3969C34.1104 52.5073 33.2937 51.4937 32.5062 50.3562C34.2271 47.6437 36.2104 43.6625 38.4562 38.4125C39.0979 39.725 39.6375 40.7823 40.075 41.5844C40.5125 42.3865 41.1031 43.3125 41.8469 44.3625C42.5906 45.4125 43.3344 46.2365 44.0781 46.8344C44.8219 47.4323 45.7406 47.9427 46.8344 48.3656C47.9281 48.7885 49.1167 49 50.4 49H61.6V40.6C61.6 40.1917 61.7312 39.8562 61.9937 39.5937C62.2562 39.3312 62.5917 39.2 63 39.2C63.35 39.2 63.7 39.3458 64.05 39.6375L78.0062 53.5937C78.2687 53.8562 78.4 54.1917 78.4 54.6ZM78.4 15.4C78.4 15.8083 78.2687 16.1437 78.0062 16.4062L64.0062 30.4062C63.7437 30.6687 63.4083 30.8 63 30.8C62.6208 30.8 62.2927 30.6615 62.0156 30.3844C61.7385 30.1073 61.6 29.7792 61.6 29.4V21H50.4C49 21 47.7312 21.2187 46.5937 21.6562C45.4562 22.0937 44.45 22.75 43.575 23.625C42.7 24.5 41.9562 25.3969 41.3437 26.3156C40.7312 27.2344 40.075 28.3646 39.375 29.7062C38.4417 31.5146 37.3042 34.0083 35.9625 37.1875C35.1167 39.1125 34.3948 40.7312 33.7969 42.0437C33.199 43.3562 32.4115 44.8875 31.4344 46.6375C30.4573 48.3875 29.524 49.8458 28.6344 51.0125C27.7448 52.1792 26.6656 53.3896 25.3969 54.6437C24.1281 55.8979 22.8156 56.8969 21.4594 57.6406C20.1031 58.3844 18.55 58.9969 16.8 59.4781C15.05 59.9594 13.1833 60.2 11.2 60.2H1.4C0.991667 60.2 0.65625 60.0687 0.39375 59.8062C0.13125 59.5437 0 59.2083 0 58.8V50.4C0 49.9917 0.13125 49.6562 0.39375 49.3937C0.65625 49.1312 0.991667 49 1.4 49H11.2C12.6 49 13.8687 48.7812 15.0062 48.3437C16.1437 47.9062 17.15 47.25 18.025 46.375C18.9 45.5 19.6437 44.6031 20.2562 43.6844C20.8687 42.7656 21.525 41.6354 22.225 40.2937C23.1583 38.4854 24.2958 35.9917 25.6375 32.8125C26.4833 30.8875 27.2052 29.2687 27.8031 27.9562C28.401 26.6437 29.1885 25.1125 30.1656 23.3625C31.1427 21.6125 32.076 20.1542 32.9656 18.9875C33.8552 17.8208 34.9344 16.6104 36.2031 15.3562C37.4719 14.1021 38.7844 13.1031 40.1406 12.3594C41.4969 11.6156 43.05 11.0031 44.8 10.5219C46.55 10.0406 48.4167 9.8 50.4 9.8H61.6V1.4C61.6 0.991667 61.7312 0.65625 61.9937 0.39375C62.2562 0.13125 62.5917 0 63 0C63.35 0 63.7 0.145833 64.05 0.4375L78.0062 14.3937C78.2687 14.6562 78.4 14.9917 78.4 15.4Z" fill="white"/>
</svg>
